REM DIRINDEX 1\2,1\3\7,1\3\8,1\4\9,1\4\10,1\4\11,1\5\12,1\5\13,1\5\14,1\6\15,1\6\16,1\6\17
REM DIRNAME "folder01","folder02","folder03","folder04","folder05","folder06","folder07","folder08","folder09","folder10","folder11","folder12","folder13","folder14","folder15","folder16","folder17"
TITLE ""
FILE "2Q_t_1101-1117.mp3" MP3
  TRACK 01 AUDIO
    TITLE "2:cjc174_3992"
    INDEX 01 00:00:00
  TRACK 02 AUDIO
    TITLE "0:"
    INDEX 01 00:01:45
  TRACK 03 AUDIO
    TITLE "2:cjc174_3993"
    INDEX 01 00:02:19
  TRACK 04 AUDIO
    TITLE "0:"
    INDEX 01 00:03:26
  TRACK 05 AUDIO
    TITLE "7:cjc174_3994"
    INDEX 01 00:03:71
  TRACK 06 AUDIO
    TITLE "0:"
    INDEX 01 00:04:65
  TRACK 07 AUDIO
    TITLE "8:cjc174_3995"
    INDEX 01 00:05:51
  TRACK 08 AUDIO
    TITLE "0:"
    INDEX 01 00:07:73
  TRACK 09 AUDIO
    TITLE "7:cjc174_3996"
    INDEX 01 00:08:43
  TRACK 10 AUDIO
    TITLE "0:"
    INDEX 01 00:09:37
  TRACK 11 AUDIO
    TITLE "8:cjc174_3997"
    INDEX 01 00:10:22
  TRACK 12 AUDIO
    TITLE "0:"
    INDEX 01 00:11:43
  TRACK 13 AUDIO
    TITLE "7:cjc174_3998"
    INDEX 01 00:12:13
  TRACK 14 AUDIO
    TITLE "0:"
    INDEX 01 00:13:15
  TRACK 15 AUDIO
    TITLE "8:cjc174_3999"
    INDEX 01 00:13:72
  TRACK 16 AUDIO
    TITLE "0:"
    INDEX 01 00:15:33
  TRACK 17 AUDIO
    TITLE "7:cjc174_4000"
    INDEX 01 00:16:03
  TRACK 18 AUDIO
    TITLE "0:"
    INDEX 01 00:16:70
  TRACK 19 AUDIO
    TITLE "8:cjc174_4001"
    INDEX 01 00:17:54
  TRACK 20 AUDIO
    TITLE "0:"
    INDEX 01 00:20:29
  TRACK 21 AUDIO
    TITLE "7:cjc174_4002"
    INDEX 01 00:20:74
  TRACK 22 AUDIO
    TITLE "0:"
    INDEX 01 00:21:75
  TRACK 23 AUDIO
    TITLE "8:cjc174_4003"
    INDEX 01 00:22:53
  TRACK 24 AUDIO
    TITLE "0:"
    INDEX 01 00:23:72
  TRACK 25 AUDIO
    TITLE "7:cjc174_4004"
    INDEX 01 00:24:44
  TRACK 26 AUDIO
    TITLE "0:"
    INDEX 01 00:25:38
  TRACK 27 AUDIO
    TITLE "8:cjc174_4005"
    INDEX 01 00:26:21
  TRACK 28 AUDIO
    TITLE "0:"
    INDEX 01 00:27:44
  TRACK 29 AUDIO
    TITLE "7:cjc174_4006"
    INDEX 01 00:28:14
  TRACK 30 AUDIO
    TITLE "0:"
    INDEX 01 00:29:28
  TRACK 31 AUDIO
    TITLE "8:cjc174_4007"
    INDEX 01 00:30:06
  TRACK 32 AUDIO
    TITLE "0:"
    INDEX 01 00:32:59
  TRACK 33 AUDIO
    TITLE "7:cjc174_4008"
    INDEX 01 00:33:27
  TRACK 34 AUDIO
    TITLE "0:"
    INDEX 01 00:34:35
  TRACK 35 AUDIO
    TITLE "8:cjc174_4009"
    INDEX 01 00:35:16
  TRACK 36 AUDIO
    TITLE "0:"
    INDEX 01 00:37:55
  TRACK 37 AUDIO
    TITLE "7:cjc174_4010"
    INDEX 01 00:38:27
  TRACK 38 AUDIO
    TITLE "0:"
    INDEX 01 00:39:65
  TRACK 39 AUDIO
    TITLE "8:cjc174_4011"
    INDEX 01 00:40:37
  TRACK 40 AUDIO
    TITLE "0:"
    INDEX 01 00:42:03
  TRACK 41 AUDIO
    TITLE "7:cjc174_4012"
    INDEX 01 00:42:50
  TRACK 42 AUDIO
    TITLE "0:"
    INDEX 01 00:43:67
  TRACK 43 AUDIO
    TITLE "8:cjc174_4013"
    INDEX 01 00:44:39
  TRACK 44 AUDIO
    TITLE "0:"
    INDEX 01 00:47:31
  TRACK 45 AUDIO
    TITLE "7:cjc174_4014"
    INDEX 01 00:48:03
  TRACK 46 AUDIO
    TITLE "0:"
    INDEX 01 00:49:22
  TRACK 47 AUDIO
    TITLE "8:cjc174_4015"
    INDEX 01 00:49:71
  TRACK 48 AUDIO
    TITLE "0:"
    INDEX 01 00:53:54
  TRACK 49 AUDIO
    TITLE "7:cjc174_4016"
    INDEX 01 00:54:24
  TRACK 50 AUDIO
    TITLE "0:"
    INDEX 01 00:55:31
  TRACK 51 AUDIO
    TITLE "8:cjc174_4017"
    INDEX 01 00:56:05
  TRACK 52 AUDIO
    TITLE "0:"
    INDEX 01 00:57:75
  TRACK 53 AUDIO
    TITLE "7:cjc174_4018"
    INDEX 01 00:58:45
  TRACK 54 AUDIO
    TITLE "0:"
    INDEX 01 01:00:03
  TRACK 55 AUDIO
    TITLE "8:cjc174_4019"
    INDEX 01 01:00:50
  TRACK 56 AUDIO
    TITLE "0:"
    INDEX 01 01:02:45
  TRACK 57 AUDIO
    TITLE "7:cjc174_4020"
    INDEX 01 01:03:15
  TRACK 58 AUDIO
    TITLE "0:"
    INDEX 01 01:04:40
  TRACK 59 AUDIO
    TITLE "8:cjc174_4021"
    INDEX 01 01:05:16
  TRACK 60 AUDIO
    TITLE "0:"
    INDEX 01 01:06:44
  TRACK 61 AUDIO
    TITLE "7:cjc174_4022"
    INDEX 01 01:07:16
  TRACK 62 AUDIO
    TITLE "0:"
    INDEX 01 01:08:36
  TRACK 63 AUDIO
    TITLE "8:cjc174_4023"
    INDEX 01 01:09:15
  TRACK 64 AUDIO
    TITLE "0:"
    INDEX 01 01:12:20
  TRACK 65 AUDIO
    TITLE "7:cjc174_4024"
    INDEX 01 01:12:65
  TRACK 66 AUDIO
    TITLE "0:"
    INDEX 01 01:14:07
  TRACK 67 AUDIO
    TITLE "8:cjc174_4025"
    INDEX 01 01:14:54
  TRACK 68 AUDIO
    TITLE "0:"
    INDEX 01 01:15:75
  TRACK 69 AUDIO
    TITLE "7:cjc174_4026"
    INDEX 01 01:16:47
  TRACK 70 AUDIO
    TITLE "0:"
    INDEX 01 01:17:66
  TRACK 71 AUDIO
    TITLE "8:cjc174_4027"
    INDEX 01 01:18:40
  TRACK 72 AUDIO
    TITLE "0:"
    INDEX 01 01:21:22
